<?xml version="1.0" encoding="utf-8"?>
<!-- Generator: Adobe Illustrator 16.0.0, SVG Export Plug-In . SVG Version: 6.00 Build 0)  -->
<!DOCTYPE svg PUBLIC "-//W3C//DTD SVG 1.1//EN" "http://www.w3.org/Graphics/SVG/1.1/DTD/svg11.dtd">
<svg version="1.1" id="Layer_1" xmlns="http://www.w3.org/2000/svg" xmlns:xlink="http://www.w3.org/1999/xlink" x="0px" y="0px"
	 width="572px" height="92px" viewBox="0 0 572 92" enable-background="new 0 0 572 92" xml:space="preserve">
<path fill="#FFFFFF" d="M0.181-120.64h32.896v1.28l-2.56,1.024c-1.708,0.598-2.838,1.408-3.392,2.432
	c-0.556,1.024-0.832,2.39-0.832,4.096v66.816c0,1.708,0.276,3.053,0.832,4.032c0.554,0.981,1.684,1.813,3.392,2.495l2.56,1.025
	v1.278H0.181v-1.278l2.56-1.025c1.706-0.596,2.836-1.407,3.392-2.432c0.554-1.023,0.832-2.389,0.832-4.097v-66.815
	c0-1.706-0.256-3.072-0.768-4.096c-0.512-1.024-1.664-1.834-3.456-2.432l-2.56-1.024V-120.64z M138.933-44.095V-81.6
	c0-6.228-1.43-10.794-4.288-13.696c-2.86-2.9-7.318-4.352-13.376-4.352c-3.67,0-7.446,0.918-11.328,2.752
	c-3.884,1.836-7.488,4.332-10.816,7.488c-1.28-3.498-3.158-6.08-5.632-7.744c-2.476-1.664-5.76-2.496-9.856-2.496
	c-3.926,0-7.702,0.982-11.328,2.944c-3.628,1.964-6.848,4.352-9.664,7.168l-1.024-8.704l-1.28-1.28l-21.888,7.424v1.28l1.92,0.512
	c1.706,0.342,2.858,0.96,3.456,1.856c0.596,0.896,0.896,2.284,0.896,4.16v40.063c-0.086,1.709-0.448,3.072-1.088,4.097
	c-0.64,1.024-1.772,1.75-3.392,2.176l-1.792,0.513v1.279h30.08v-1.279l-1.152-0.385c-2.988-0.852-4.48-2.943-4.48-6.271v-42.88
	c2.132-1.876,4.18-3.306,6.144-4.288c1.962-0.98,3.924-1.472,5.888-1.472c2.986,0,5.098,0.726,6.336,2.176
	c1.236,1.452,1.856,3.884,1.856,7.296v39.041c0,1.709-0.32,3.053-0.96,4.031c-0.64,0.982-1.772,1.729-3.392,2.24l-1.792,0.514v1.278
	h29.696v-1.278l-1.152-0.386c-2.988-0.852-4.524-2.942-4.608-6.271v-33.154c0-1.792-0.064-3.498-0.192-5.12
	c-0.128-1.62-0.406-3.114-0.832-4.48c2.304-1.962,4.5-3.434,6.592-4.416c2.09-0.98,4.244-1.472,6.464-1.472
	c2.816,0,4.864,0.662,6.144,1.984c1.28,1.324,1.92,3.776,1.92,7.36v39.167c0,1.709-0.32,3.072-0.96,4.097
	c-0.64,1.024-1.772,1.792-3.392,2.304l-1.28,0.385v1.279h29.568v-1.279l-1.408-0.385C140.469-38.676,138.933-40.768,138.933-44.095z
	 M250.419-44.095V-81.6c0-6.228-1.43-10.794-4.288-13.696c-2.86-2.9-7.318-4.352-13.376-4.352c-3.67,0-7.446,0.918-11.328,2.752
	c-3.884,1.836-7.488,4.332-10.815,7.488c-1.28-3.498-3.158-6.08-5.633-7.744c-2.476-1.664-5.76-2.496-9.855-2.496
	c-3.926,0-7.702,0.982-11.328,2.944c-3.628,1.964-6.848,4.352-9.664,7.168l-1.024-8.704l-1.28-1.28l-21.888,7.424v1.28l1.92,0.512
	c1.706,0.342,2.858,0.96,3.456,1.856c0.596,0.896,0.896,2.284,0.896,4.16v40.063c-0.086,1.709-0.448,3.072-1.088,4.097
	s-1.772,1.75-3.392,2.176l-1.792,0.513v1.279h30.08v-1.279l-1.152-0.385c-2.988-0.852-4.48-2.943-4.48-6.271v-42.88
	c2.132-1.876,4.18-3.306,6.144-4.288c1.962-0.98,3.924-1.472,5.888-1.472c2.986,0,5.098,0.726,6.336,2.176
	c1.236,1.452,1.856,3.884,1.856,7.296v39.041c0,1.709-0.32,3.053-0.96,4.031c-0.64,0.982-1.772,1.729-3.392,2.24l-1.792,0.514v1.278
	h29.696v-1.278l-1.152-0.386c-2.988-0.852-4.523-2.942-4.607-6.271v-33.154c0-1.792-0.064-3.498-0.192-5.12
	c-0.128-1.62-0.406-3.114-0.832-4.48c2.304-1.962,4.5-3.434,6.592-4.416c2.09-0.98,4.244-1.472,6.464-1.472
	c2.816,0,4.864,0.662,6.145,1.984c1.28,1.324,1.92,3.776,1.92,7.36v39.167c0,1.709-0.32,3.072-0.96,4.097
	c-0.641,1.024-1.772,1.792-3.393,2.304l-1.279,0.385v1.279h29.567v-1.279l-1.407-0.385
	C251.955-38.676,250.419-40.768,250.419-44.095z M286.961-40.128c-0.64-1.024-0.96-2.388-0.96-4.097v-35.839l0.384-18.176
	l-1.279-1.28l-23.424,7.552v1.28l1.792,0.384c1.706,0.342,2.88,0.96,3.52,1.856c0.64,0.896,0.96,2.24,0.96,4.032v40.064
	c0,1.707-0.32,3.07-0.96,4.096c-0.64,1.023-1.813,1.791-3.52,2.304l-1.792,0.513v1.279h29.951v-1.279l-1.279-0.385
	C288.73-38.336,287.602-39.104,286.961-40.128z M276.785-106.304c2.9,0,5.332-0.916,7.296-2.752c1.962-1.834,2.944-4.16,2.944-6.976
	c0-2.9-0.982-5.248-2.944-7.04c-1.964-1.792-4.396-2.688-7.296-2.688c-2.902,0-5.355,0.896-7.36,2.688
	c-2.006,1.792-3.008,4.14-3.008,7.04c0,2.816,1.002,5.142,3.008,6.976C271.43-107.22,273.883-106.304,276.785-106.304z
	 M360.241-44.095V-80.96c0-6.314-1.518-11.008-4.544-14.08c-3.03-3.072-7.36-4.608-12.992-4.608c-3.67,0-7.382,0.854-11.136,2.56
	c-3.757,1.708-7.126,3.884-10.112,6.528l-1.024-7.68l-1.278-1.28l-21.889,7.424v1.28l1.92,0.512c1.705,0.342,2.857,0.96,3.455,1.856
	c0.598,0.896,0.896,2.284,0.896,4.16v40.063c0,3.328-1.494,5.42-4.48,6.271l-1.791,0.514v1.278h30.079v-1.278l-1.15-0.386
	c-2.988-0.852-4.48-2.942-4.48-6.271v-43.521c4.438-3.754,8.532-5.632,12.288-5.632c5.46,0,8.192,2.732,8.192,8.192v40.832
	c0,3.244-1.494,5.334-4.48,6.272l-1.664,0.513v1.279h30.208v-1.279l-1.15-0.385C361.861-38.676,360.241-40.768,360.241-44.095z
	 M423.407-87.04c2.09,3.884,3.136,8.3,3.136,13.248c0,0.94-0.044,1.899-0.128,2.88c-0.086,0.982-0.256,1.855-0.512,2.624h-38.145
	c0.084,9.216,1.729,15.853,4.929,19.903c3.199,4.055,7.955,6.08,14.271,6.08c4.267,0,7.723-0.682,10.368-2.047
	c2.645-1.365,5.12-3.371,7.424-6.018l1.28,1.151c-2.646,4.694-6.166,8.364-10.561,11.009c-4.396,2.645-9.664,3.968-15.809,3.968
	c-6.061,0-11.437-1.302-16.128-3.903c-4.694-2.603-8.364-6.336-11.008-11.199c-2.646-4.864-3.969-10.666-3.969-17.408
	c0-6.996,1.536-12.948,4.607-17.856c3.072-4.906,7.019-8.64,11.84-11.2c4.82-2.56,9.877-3.84,15.169-3.84
	c5.546,0,10.281,1.132,14.208,3.392C418.307-93.994,421.315-90.922,423.407-87.04z M408.623-90.944
	c-1.536-4.096-4.479-6.144-8.832-6.144c-2.476,0-4.588,0.748-6.336,2.24c-1.75,1.494-3.116,4.14-4.096,7.936
	c-0.982,3.798-1.517,9.152-1.601,16.064h21.888C410.499-80.148,410.159-86.848,408.623-90.944z M494.637-44.095V-80.96
	c0-6.314-1.517-11.008-4.544-14.08c-3.03-3.072-7.359-4.608-12.992-4.608c-3.67,0-7.382,0.854-11.136,2.56
	c-3.756,1.708-7.126,3.884-10.112,6.528l-1.023-7.68l-1.279-1.28l-21.889,7.424v1.28l1.921,0.512
	c1.705,0.342,2.857,0.96,3.455,1.856c0.597,0.896,0.896,2.284,0.896,4.16v40.063c0,3.328-1.493,5.42-4.479,6.271l-1.792,0.514v1.278
	h30.08v-1.278l-1.151-0.386c-2.988-0.852-4.479-2.942-4.479-6.271v-43.521c4.437-3.754,8.531-5.632,12.288-5.632
	c5.46,0,8.191,2.732,8.191,8.192v40.832c0,3.244-1.494,5.334-4.479,6.272l-1.664,0.513v1.279h30.208v-1.279l-1.151-0.385
	C496.257-38.676,494.637-40.768,494.637-44.095z M538.667-41.344c-1.366,0.896-2.943,1.344-4.735,1.344
	c-2.049,0-3.733-0.768-5.057-2.305c-1.324-1.535-1.983-3.795-1.983-6.783v-46.08h14.465v-2.56H527.02l0.385-17.92h-1.28L515.627-104
	c-1.878,1.878-3.775,3.372-5.695,4.48c-1.921,1.11-4.203,1.964-6.849,2.56l-3.072,0.512v1.28h8.832v43.775
	c0,5.975,1.516,10.326,4.544,13.057s7.274,4.096,12.736,4.096c4.267,0,7.893-0.854,10.88-2.561c2.986-1.705,5.332-4.01,7.04-6.911
	l-1.28-1.28C541.398-43.456,540.032-42.24,538.667-41.344z M568.619-52.927c-2.134-2.22-4.735-3.328-7.809-3.328
	c-3.072,0-5.676,1.108-7.809,3.328c-2.134,2.22-3.199,4.821-3.199,7.808c0,2.987,1.065,5.549,3.199,7.682
	c2.133,2.131,4.736,3.198,7.809,3.198c3.073,0,5.675-1.067,7.809-3.198c2.132-2.133,3.2-4.693,3.2-7.682
	C571.819-48.105,570.75-50.708,568.619-52.927z"/>
<g>
	<path fill="#FFFFFF" d="M60.042,24.206c8.486,0,15.734,3.214,21.743,9.643c6.007,6.428,9.012,14.306,9.012,23.633
		c0,9.328-3.005,17.205-9.012,23.634c-6.009,6.429-13.256,9.643-21.743,9.643c-8.823,0-15.63-3.066-20.419-9.201v7.437h-16.26V0.761
		h16.26v32.646C44.413,27.274,51.219,24.206,60.042,24.206z M44.539,70.275c3.277,3.32,7.437,4.979,12.479,4.979
		c5.042,0,9.221-1.658,12.542-4.979c3.319-3.318,4.979-7.582,4.979-12.794c0-5.209-1.66-9.473-4.979-12.793
		c-3.32-3.318-7.5-4.979-12.542-4.979c-5.042,0-9.201,1.661-12.479,4.979c-3.277,3.321-4.916,7.584-4.916,12.793
		C39.623,62.693,41.262,66.957,44.539,70.275z"/>
	<path fill="#FFFFFF" d="M118.527,36.81c1.512-4.033,4.012-7.059,7.5-9.075c3.486-2.017,7.374-3.025,11.659-3.025v18.15
		c-4.959-0.587-9.39,0.421-13.298,3.025c-3.907,2.605-5.861,6.933-5.861,12.982v30.125h-16.26V25.97h16.26V36.81z"/>
	<path fill="#FFFFFF" d="M192.64,25.97h16.26v63.023h-16.26v-7.437c-4.874,6.135-11.722,9.201-20.545,9.201
		c-8.404,0-15.61-3.214-21.617-9.643c-6.009-6.429-9.012-14.306-9.012-23.634c0-9.327,3.003-17.205,9.012-23.633
		c6.007-6.428,13.213-9.643,21.617-9.643c8.823,0,15.671,3.068,20.545,9.201V25.97z M162.642,70.275
		c3.277,3.32,7.437,4.979,12.479,4.979c5.042,0,9.221-1.658,12.542-4.979c3.318-3.318,4.979-7.582,4.979-12.794
		c0-5.209-1.66-9.473-4.979-12.793c-3.321-3.318-7.5-4.979-12.542-4.979c-5.042,0-9.202,1.661-12.479,4.979
		c-3.277,3.321-4.916,7.584-4.916,12.793C157.726,62.693,159.364,66.957,162.642,70.275z"/>
	<path fill="#FFFFFF" d="M258.688,24.206c6.889,0,12.583,2.312,17.079,6.933c4.494,4.622,6.744,11.009,6.744,19.159v38.696h-16.26
		v-36.68c0-4.2-1.134-7.415-3.403-9.642c-2.269-2.226-5.294-3.34-9.076-3.34c-4.203,0-7.563,1.304-10.083,3.907
		c-2.521,2.605-3.781,6.514-3.781,11.723v34.032h-16.26V25.97h16.26v7.059C243.855,27.148,250.116,24.206,258.688,24.206z"/>
	<path fill="#FFFFFF" d="M371.498,25.97h10.292l-18.359,63.023h-11.218L337.18,41.732l-14.942,47.261h-11.731L291.963,25.97h11.48
		l13.853,47.893l14.876-47.893h10.814l14.838,47.91L371.498,25.97z"/>
	<path fill="#FFFFFF" d="M399.857,14.5c-2.102,0-3.866-0.713-5.294-2.143c-1.43-1.428-2.143-3.151-2.143-5.168
		s0.713-3.76,2.143-5.231c1.428-1.469,3.192-2.206,5.294-2.206c2.017,0,3.738,0.737,5.168,2.206
		c1.428,1.471,2.143,3.214,2.143,5.231s-0.715,3.74-2.143,5.168C403.596,13.787,401.874,14.5,399.857,14.5z M394.312,88.993V25.97
		h10.966v63.023H394.312z"/>
	<path fill="#FFFFFF" d="M456.323,36.558H439.56v34.159c0,3.109,0.608,5.315,1.827,6.617c1.217,1.304,3.088,1.976,5.609,2.017
		c2.521,0.043,5.629-0.02,9.327-0.189v9.832c-9.579,1.261-16.597,0.482-21.05-2.332c-4.455-2.814-6.681-8.13-6.681-15.944V36.558
		h-12.479V25.97h12.479V11.601l10.967-3.277V25.97h16.764V36.558z"/>
	<path fill="#FFFFFF" d="M500.691,24.332c7.394,0,13.318,2.332,17.772,6.996c4.453,4.664,6.681,10.988,6.681,18.97v38.696h-10.966
		V50.928c0-5.125-1.387-9.095-4.159-11.912c-2.773-2.814-6.598-4.223-11.471-4.223c-5.463,0-9.875,1.702-13.234,5.105
		c-3.362,3.403-5.042,8.634-5.042,15.692v33.402h-10.966V0.761h10.966v34.284C484.726,27.904,491.532,24.332,500.691,24.332z"/>
</g>
<circle fill="#FDC30E" cx="545.967" cy="78.885" r="10.108"/>
</svg>
